<mxfile host="app.diagrams.net" modified="2023-08-09T15:35:12.005Z" agent="Mozilla/5.0 (Windows NT 10.0; Win64; x64) AppleWebKit/537.36 (KHTML, like Gecko) Chrome/115.0.0.0 Safari/537.36 Edg/115.0.1901.183" version="21.6.7" etag="BU7gizFLmmRc6j8Sr2-O" type="github">
  <diagram name="Page-1" id="Sk7szCO9FA5MwS2F1VaV">
    <mxGraphModel>
      <root>
        <mxCell id="0" />
        <mxCell id="1" parent="0" />
      </root>
    </mxGraphModel>
  </diagram>
</mxfile>
